<svg width="92" height="93" viewBox="0 0 92 93" fill="none" xmlns="http://www.w3.org/2000/svg">
    <path d="M16.9682 78.9866L10.511 6.53369H81.489L75.0231 78.9751L45.9569 87.0337L16.9682 78.9866Z" fill="#1572B6"/>
    <path d="M46 80.8754L69.4888 74.3635L75.0145 12.459H46V80.8754Z" fill="#33A9DC"/>
    <path d="M46 38.7077H57.7588L58.5695 29.6083H46V20.7217H46.0316H68.2812L68.0685 23.1051L65.8864 47.5943H46V38.7077Z" fill="white"/>
    <path d="M46.0546 61.7853L46.0143 61.7968L36.1186 59.123L35.4861 52.0361H30.6762H26.5649L27.8098 65.9885L46.0114 71.0428L46.0546 71.0313V61.7853Z" fill="#EBEBEB"/>
    <path d="M57.0026 47.2178L55.9331 59.1174L46.0229 61.7911V71.0372L64.239 65.9887L64.3741 64.4879L65.9179 47.2178H57.0026Z" fill="white"/>
    <path d="M46.0316 20.7217V26.2417V29.5853V29.6083H24.5956H24.5669L24.3886 27.6102L23.9833 23.1051L23.7705 20.7217H46.0316Z" fill="#EBEBEB"/>
    <path d="M46 38.7075V44.2275V47.5711V47.5941H36.2566H36.2278L36.0496 45.596L35.6471 41.0909L35.4343 38.7075H46Z" fill="#EBEBEB"/>
</svg>