<svg width="21" height="21" viewBox="0 0 21 21" fill="none" xmlns="http://www.w3.org/2000/svg">
    <path d="M7 12.5C6.86739 12.5 6.74021 12.4473 6.64645 12.3536C6.55268 12.2598 6.5 12.1326 6.5 12C6.5 11.8674 6.55268 11.7402 6.64645 11.6464C6.74021 11.5527 6.86739 11.5 7 11.5H14C14.1326 11.5 14.2598 11.5527 14.3536 11.6464C14.4473 11.7402 14.5 11.8674 14.5 12C14.5 12.1326 14.4473 12.2598 14.3536 12.3536C14.2598 12.4473 14.1326 12.5 14 12.5H7ZM7 15.5C6.86739 15.5 6.74021 15.4473 6.64645 15.3536C6.55268 15.2598 6.5 15.1326 6.5 15C6.5 14.8674 6.55268 14.7402 6.64645 14.6464C6.74021 14.5527 6.86739 14.5 7 14.5H14C14.1326 14.5 14.2598 14.5527 14.3536 14.6464C14.4473 14.7402 14.5 14.8674 14.5 15C14.5 15.1326 14.4473 15.2598 14.3536 15.3536C14.2598 15.4473 14.1326 15.5 14 15.5H7Z" fill="white"/>
    <path fill-rule="evenodd" clip-rule="evenodd" d="M11.685 1.5H5C4.60218 1.5 4.22064 1.65804 3.93934 1.93934C3.65804 2.22064 3.5 2.60218 3.5 3V18C3.5 18.3978 3.65804 18.7794 3.93934 19.0607C4.22064 19.342 4.60218 19.5 5 19.5H16C16.3978 19.5 16.7794 19.342 17.0607 19.0607C17.342 18.7794 17.5 18.3978 17.5 18V7.702C17.4999 7.32647 17.359 6.96464 17.105 6.688L12.791 1.986C12.6504 1.83275 12.4795 1.7104 12.2891 1.62673C12.0987 1.54307 11.893 1.49991 11.685 1.5ZM4.5 3C4.5 2.86739 4.55268 2.74022 4.64645 2.64645C4.74021 2.55268 4.86739 2.5 5 2.5H11.685C11.7544 2.49992 11.823 2.51429 11.8865 2.54218C11.9501 2.57007 12.0071 2.61087 12.054 2.662L16.368 7.364C16.4528 7.45616 16.4999 7.57678 16.5 7.702V18C16.5 18.1326 16.4473 18.2598 16.3536 18.3536C16.2598 18.4473 16.1326 18.5 16 18.5H5C4.86739 18.5 4.74021 18.4473 4.64645 18.3536C4.55268 18.2598 4.5 18.1326 4.5 18V3Z" fill="white"/>
    <path d="M11.5 7.5H17C17.1326 7.5 17.2598 7.55268 17.3536 7.64645C17.4473 7.74021 17.5 7.86739 17.5 8C17.5 8.13261 17.4473 8.25979 17.3536 8.35355C17.2598 8.44732 17.1326 8.5 17 8.5H11C10.8674 8.5 10.7402 8.44732 10.6464 8.35355C10.5527 8.25979 10.5 8.13261 10.5 8V2C10.5 1.86739 10.5527 1.74021 10.6464 1.64645C10.7402 1.55268 10.8674 1.5 11 1.5C11.1326 1.5 11.2598 1.55268 11.3536 1.64645C11.4473 1.74021 11.5 1.86739 11.5 2V7.5Z" fill="white"/>
</svg>
