<svg width="36" height="36" viewBox="0 0 36 36" fill="none" xmlns="http://www.w3.org/2000/svg">
<path d="M27.9196 0H8.08036C3.6177 0 0 3.6177 0 8.08036V27.9196C0 32.3823 3.6177 36 8.08036 36H27.9196C32.3823 36 36 32.3823 36 27.9196V8.08036C36 3.6177 32.3823 0 27.9196 0Z" fill="#F25B98"/>
<path d="M18.0063 8.32959C16.0949 8.32959 14.2265 8.89637 12.6373 9.95827C11.048 11.0202 9.80936 12.5295 9.07792 14.2953C8.34647 16.0612 8.15509 18.0043 8.52798 19.879C8.90087 21.7536 9.82128 23.4756 11.1728 24.8271C12.5243 26.1786 14.2463 27.099 16.1209 27.4719C17.9956 27.8448 19.9387 27.6534 21.7046 26.922C23.4704 26.1905 24.9797 24.9519 26.0416 23.3626C27.1035 21.7734 27.6703 19.905 27.6703 17.9936C27.667 15.4316 26.6478 12.9754 24.8361 11.1638C23.0245 9.35212 20.5683 8.33289 18.0063 8.32959ZM24.2411 13.0431C25.2578 14.3239 25.8544 15.8873 25.9495 17.5198C24.1573 17.157 22.3127 17.1358 20.5127 17.4574C20.3132 16.996 20.1137 16.5471 19.9017 16.1231C21.5652 15.4487 23.0504 14.3989 24.2411 13.0556V13.0431ZM22.9942 11.7962C21.9355 13.0228 20.5906 13.9694 19.0787 14.552L18.5799 13.704C17.8419 12.4802 17.008 11.3169 16.086 10.225C17.2815 9.93709 18.5275 9.93026 19.7262 10.205C20.9248 10.4798 22.0434 11.0287 22.9942 11.8086V11.7962ZM14.3776 10.8485C15.5531 12.1699 16.5855 13.6119 17.4576 15.1505C15.1087 15.7819 12.6819 16.0758 10.2502 16.0234C10.5389 14.9183 11.0612 13.8879 11.7818 13.0017C12.5024 12.1155 13.4046 11.394 14.4275 10.8859L14.3776 10.8485ZM9.97582 18.0061V17.7317H10.6991C12.2695 17.7347 13.8376 17.6096 15.3877 17.3576C16.3497 17.1985 17.2996 16.9735 18.2308 16.6843C18.4136 17.0584 18.5965 17.4449 18.7794 17.844C17.3928 18.315 16.1008 19.0286 14.9637 19.9513C13.8118 20.8818 12.8144 21.9887 12.0084 23.2309C10.7183 21.7942 9.99579 19.9368 9.97582 18.0061ZM13.2304 24.4155C13.9607 23.2242 14.8884 22.1658 15.9737 21.2856C16.9992 20.4533 18.1705 19.8191 19.4278 19.4151C20.138 21.3517 20.6193 23.3647 20.8619 25.4131C19.6093 25.906 18.2522 26.073 16.9175 25.8985C15.5828 25.7241 14.3142 25.2138 13.2304 24.4155ZM22.4704 24.5527C22.2329 22.6733 21.8068 20.8226 21.1985 19.0286C22.7738 18.8134 24.3749 18.8852 25.9246 19.2406C25.7502 20.3133 25.3583 21.3391 24.7729 22.2548C24.1875 23.1705 23.4209 23.9567 22.5203 24.5651L22.4704 24.5527Z" fill="white"/>
</svg>
