<svg width="36" height="36" viewBox="0 0 36 36" fill="none" xmlns="http://www.w3.org/2000/svg">
<g clip-path="url(#clip0_640_93)">
<path d="M17.9978 0C8.05951 0 1.03871e-05 8.091 1.03871e-05 18.072C-0.00405001 21.86 1.18242 25.5535 3.39173 28.6304C5.60105 31.7074 8.72147 34.0122 12.312 35.2192C13.212 35.3857 13.5405 34.8277 13.5405 34.3485C13.5405 33.9187 13.5248 32.7825 13.5158 31.275C8.50951 32.3662 7.45201 28.8517 7.45201 28.8517C6.63526 26.7637 5.45401 26.208 5.45401 26.208C3.81826 25.0875 5.57551 25.11 5.57551 25.11C7.38226 25.2382 8.33176 26.973 8.33176 26.973C9.93826 29.7337 12.546 28.9372 13.572 28.4737C13.734 27.306 14.1998 26.5095 14.715 26.0573C10.719 25.6005 6.51601 24.0502 6.51601 17.127C6.51601 15.1538 7.21801 13.5405 8.37001 12.276C8.18326 11.8192 7.56676 9.981 8.54551 7.49475C8.54551 7.49475 10.0575 7.00875 13.4955 9.3465C14.9642 8.94513 16.4797 8.74084 18.0023 8.739C19.5249 8.74202 21.0403 8.94706 22.509 9.34875C25.9448 7.011 27.4545 7.497 27.4545 7.497C28.4355 9.9855 27.819 11.8215 27.6345 12.2782C28.7888 13.5427 29.484 15.156 29.484 17.1292C29.484 24.0705 25.2765 25.5983 21.267 26.046C21.9128 26.604 22.4888 27.7065 22.4888 29.3917C22.4888 31.8082 22.4663 33.7567 22.4663 34.3485C22.4663 34.8322 22.7903 35.3948 23.7038 35.217C27.2908 34.0071 30.4074 31.7014 32.6136 28.6252C34.8198 25.549 36.0044 21.8576 36 18.072C36 8.091 27.9405 0 17.9978 0Z" fill="#5C6BC0"/>
</g>
<defs>
<clipPath id="clip0_640_93">
<rect width="36" height="36" fill="white"/>
</clipPath>
</defs>
</svg>
