<svg width="36" height="36" viewBox="0 0 36 36" fill="none" xmlns="http://www.w3.org/2000/svg">
<path d="M18.6526 21.4954L4.37636 12.4102C3.6383 11.9221 3.12145 11.1637 2.93711 10.2982C2.75276 9.4328 2.91566 8.52958 3.39074 7.78307C3.86582 7.03657 4.61507 6.50649 5.47714 6.307C6.33921 6.10751 7.24515 6.25455 7.99988 6.71646L18.4736 13.3813L27.8776 6.79836C28.6113 6.30118 29.5111 6.11255 30.3827 6.27322C31.2543 6.43389 32.0278 6.93096 32.536 7.65708C33.0442 8.38319 33.2463 9.28007 33.0988 10.154C32.9513 11.0279 32.466 11.8088 31.7476 12.3278L18.6526 21.4954Z" fill="#EA4435"/>
<path d="M30.9375 29.8125H26.4375L26.4375 9.5625C26.4375 8.66739 26.7931 7.80895 27.426 7.17601C28.0589 6.54308 28.9174 6.1875 29.8125 6.1875C30.7076 6.1875 31.5661 6.54308 32.199 7.17601C32.8319 7.80895 33.1875 8.66739 33.1875 9.5625V27.5625C33.1875 28.1592 32.9504 28.7315 32.5285 29.1535C32.1065 29.5754 31.5342 29.8125 30.9375 29.8125Z" fill="#00AC47"/>
<path d="M33.1382 9.07375C33.1283 9.00625 33.1291 8.93729 33.115 8.8699C33.0934 8.76663 33.0533 8.67123 33.0224 8.57155C32.9926 8.45747 32.9566 8.34507 32.9147 8.23484C32.8922 8.1814 32.8575 8.13449 32.832 8.08252C32.762 7.93255 32.681 7.78797 32.5896 7.64995C32.5446 7.58459 32.4884 7.5289 32.4387 7.46703C32.3533 7.35457 32.2611 7.24753 32.1625 7.14652C32.0877 7.07373 32.0024 7.01286 31.9211 6.94728C31.8346 6.87316 31.7445 6.80343 31.6511 6.73836C31.5618 6.68009 31.4642 6.6352 31.3698 6.58548C31.2704 6.53361 31.1729 6.47714 31.0694 6.43574C30.9694 6.39546 30.8628 6.36982 30.7583 6.3391C30.6537 6.30839 30.5498 6.2716 30.4425 6.25169C30.3095 6.23033 30.1754 6.21681 30.0408 6.21119C29.9555 6.20523 29.8709 6.19027 29.7851 6.19094C29.626 6.19558 29.4674 6.21156 29.3105 6.23875C29.2472 6.2482 29.1834 6.24742 29.1205 6.26047C28.9082 6.32533 28.6965 6.39208 28.4854 6.46072C28.4275 6.48547 28.3767 6.52225 28.3206 6.55015C27.7493 6.81673 27.2675 7.24307 26.9333 7.77763C26.5991 8.3122 26.4269 8.93211 26.4375 9.56245V16.0447L31.7475 12.3274C32.2689 11.9774 32.6778 11.4838 32.9245 10.9063C33.1713 10.3289 33.2457 9.69247 33.1382 9.07375Z" fill="#FFBA00"/>
<path d="M6.1875 6.1875C7.08261 6.1875 7.94105 6.54308 8.57399 7.17601C9.20692 7.80895 9.5625 8.66739 9.5625 9.5625V29.8125H5.0625C4.46576 29.8125 3.89347 29.5754 3.47151 29.1535C3.04955 28.7315 2.8125 28.1592 2.8125 27.5625V9.5625C2.8125 8.66739 3.16808 7.80895 3.80101 7.17601C4.43395 6.54308 5.29239 6.1875 6.1875 6.1875Z" fill="#4285F4"/>
<path d="M2.86178 9.07356C2.87168 9.00606 2.87089 8.9371 2.88495 8.86971C2.90655 8.76644 2.94672 8.67104 2.97754 8.57136C3.00742 8.45732 3.0434 8.34496 3.08531 8.23476C3.10781 8.18133 3.14247 8.13441 3.16812 8.08244C3.23807 7.93241 3.31907 7.78779 3.41044 7.64976C3.45544 7.5844 3.51169 7.52871 3.56142 7.46684C3.64671 7.35438 3.73891 7.24734 3.83749 7.14633C3.9123 7.07354 3.99758 7.01268 4.07903 6.94709C4.16545 6.87294 4.25556 6.80321 4.34903 6.73818C4.43824 6.6799 4.53589 6.63501 4.63028 6.58529C4.72782 6.53012 4.82807 6.47988 4.93065 6.43476C5.03078 6.39449 5.13743 6.36884 5.24183 6.33813C5.34623 6.30741 5.45029 6.27063 5.55761 6.25071C5.69058 6.22936 5.82469 6.21584 5.95924 6.21021C6.04474 6.20425 6.12923 6.18929 6.21495 6.18996C6.3741 6.1946 6.53272 6.21057 6.68959 6.23778C6.75293 6.24723 6.81671 6.24644 6.87971 6.25949C6.98861 6.28724 7.096 6.32058 7.20147 6.35939C7.30752 6.38758 7.41208 6.42107 7.51478 6.45974C7.5726 6.48449 7.62334 6.52128 7.67959 6.54918C7.82542 6.61769 7.96611 6.69664 8.10057 6.78543C8.55128 7.0949 8.91989 7.50943 9.17458 7.99322C9.42927 8.47702 9.56237 9.01553 9.56239 9.56226V16.0445L4.25239 12.3274C3.73104 11.9773 3.32226 11.4838 3.07547 10.9063C2.82869 10.3289 2.75446 9.6923 2.86178 9.07356Z" fill="#C52528"/>
</svg>
