<svg width="36" height="36" viewBox="0 0 36 36" fill="none" xmlns="http://www.w3.org/2000/svg">
<g clip-path="url(#clip0_640_30)">
<path d="M34 0H2C0.89543 0 0 0.89543 0 2V34C0 35.1046 0.89543 36 2 36H34C35.1046 36 36 35.1046 36 34V2C36 0.89543 35.1046 0 34 0Z" fill="#117EB8"/>
<path fill-rule="evenodd" clip-rule="evenodd" d="M6.56962 13.924H11.3811V29.405H6.56962V13.924ZM8.97612 6.22853C10.5146 6.22853 11.7646 7.47853 11.7646 9.01703C11.7646 10.557 10.5146 11.8075 8.97612 11.8075C8.60535 11.8145 8.23691 11.7476 7.89232 11.6106C7.54774 11.4735 7.23392 11.2692 6.96924 11.0094C6.70455 10.7497 6.49429 10.4398 6.35076 10.0979C6.20723 9.75597 6.1333 9.38886 6.1333 9.01803C6.1333 8.64719 6.20723 8.28008 6.35076 7.93815C6.49429 7.59622 6.70455 7.28634 6.96924 7.02661C7.23392 6.76689 7.54774 6.56254 7.89232 6.4255C8.23691 6.28847 8.60535 6.22151 8.97612 6.22853ZM14.3991 13.9235H19.0141V16.039H19.0781C19.7206 14.822 21.2901 13.539 23.6306 13.539C28.5026 13.539 29.4026 16.7455 29.4026 20.914V29.405H24.5941V21.8765C24.5941 20.0815 24.5611 17.772 22.0941 17.772C19.5906 17.772 19.2061 19.7275 19.2061 21.747V29.405H14.3986V13.924L14.3991 13.9235Z" fill="white"/>
</g>
<defs>
<clipPath id="clip0_640_30">
<rect width="36" height="36" fill="white"/>
</clipPath>
</defs>
</svg>
