<svg width="92" height="93" viewBox="0 0 92 93" fill="none" xmlns="http://www.w3.org/2000/svg">
    <path d="M29.4388 0.783691C27.0966 0.783691 24.9243 1.36529 23 2.59413C16.986 6.44557 14.6969 15.8312 15.9098 27.5167C6.18202 32.1943 0 39.0818 0 46.7837C0 54.4855 6.18202 61.3731 15.9098 66.0507C14.6975 77.7357 16.986 87.1218 23 90.9733C24.9205 92.2021 27.0928 92.7837 29.4388 92.7837C34.4322 92.7837 40.2034 90.0038 46 85.2347C51.7971 90.0038 57.5753 92.7837 62.5687 92.7837C64.9109 92.7837 67.0832 92.2021 69.0075 90.9733C75.0215 87.1218 77.3106 77.7361 76.0977 66.0507C85.8218 61.3732 92 54.4839 92 46.7837C92 39.0818 85.818 32.1943 76.0902 27.5167C77.3025 15.8317 75.014 6.44557 69 2.59413C67.0795 1.36104 64.9072 0.783691 62.5612 0.783691C57.5678 0.783691 51.7966 3.56354 46 8.33271C40.2031 3.56354 34.4305 0.783691 29.4388 0.783691ZM29.4388 8.22475C32.4351 8.22475 36.3973 9.99192 40.6992 13.2657C38.1699 15.9134 35.6928 18.9241 33.3096 22.2764C29.4441 22.8912 25.7997 23.7874 22.4235 24.909C22.4054 24.6493 22.3624 24.3768 22.3486 24.12C21.9385 16.5514 23.437 10.9095 26.3542 9.03861C27.2167 8.48585 28.2236 8.22475 29.4388 8.22475ZM62.5612 8.22475C63.7725 8.22475 64.7833 8.48585 65.6458 9.03861C68.563 10.9053 70.0615 16.5514 69.6514 24.12C69.6375 24.3768 69.5947 24.6493 69.5765 24.909C66.1982 23.7867 62.5511 22.8912 58.6829 22.2764C56.2998 18.9246 53.83 15.9131 51.3008 13.2657C55.6024 9.99247 59.5665 8.22475 62.5612 8.22475ZM46 17.9911C47.0391 19.0403 48.071 20.1491 49.1146 21.3629C48.0804 21.3243 47.0518 21.2715 46 21.2715C44.9508 21.2715 43.9246 21.3245 42.8929 21.3629C43.9355 20.1504 44.9618 19.0393 46 17.9911ZM46 28.7126C49.1766 28.7126 52.1875 28.9095 55.0443 29.2524C56.7865 31.879 58.5035 34.6561 60.113 37.7481C61.6556 40.7119 63.0198 43.7456 64.2233 46.7837C63.0196 49.8236 61.6565 52.862 60.113 55.8276C58.5085 58.9107 56.7957 61.6698 55.0592 64.2901C52.1016 64.649 49.0675 64.8548 46 64.8548C42.8234 64.8548 39.8125 64.6579 36.9557 64.315C35.2135 61.6883 33.4965 58.9196 31.887 55.8276C30.3435 52.862 28.9807 49.8236 27.7767 46.7837C28.9799 43.7456 30.3444 40.7119 31.887 37.7481C33.4922 34.665 35.2038 31.8975 36.9408 29.2773C39.8984 28.9183 42.9325 28.7126 46 28.7126ZM64.1934 31.013C65.7142 31.4203 67.1763 31.8599 68.5508 32.35C68.2394 33.9107 67.8586 35.5014 67.4277 37.1087C66.9345 36.0819 66.4561 35.0519 65.9229 34.0276C65.3742 32.9739 64.7651 32.0273 64.1934 31.013ZM27.7992 31.0213C27.2293 32.0324 26.624 32.9773 26.0771 34.0276C25.5441 35.0521 25.0654 36.0818 24.5723 37.1087C24.1405 35.4981 23.7534 33.9055 23.4417 32.3417C24.8414 31.8512 26.2998 31.4168 27.7992 31.0213ZM17.1302 35.074C17.9379 38.8567 19.0583 42.7779 20.4993 46.7754C19.0614 50.7633 17.9456 54.6774 17.1377 58.4519C10.4621 54.8762 6.70833 50.425 6.70833 46.7837C6.70833 43.0462 10.3572 38.7867 16.4714 35.3979C16.68 35.2821 16.917 35.1871 17.1302 35.074ZM74.8623 35.1155C81.5379 38.6912 85.2917 43.1424 85.2917 46.7837C85.2917 50.5212 81.6428 54.7806 75.5286 58.1695C75.3199 58.2853 75.083 58.3803 74.8698 58.4934C74.0616 54.7085 72.9504 50.7836 71.5081 46.7837C72.9444 42.7992 74.055 38.8868 74.8623 35.1155ZM46 38.2796C41.7642 38.2796 38.3333 42.0852 38.3333 46.7837C38.3333 51.4822 41.7642 55.2878 46 55.2878C50.2358 55.2878 53.6667 51.4822 53.6667 46.7837C53.6667 42.0852 50.2358 38.2796 46 38.2796ZM24.5723 56.4587C25.0657 57.4858 25.5512 58.5151 26.0846 59.5398C26.6327 60.5927 27.2355 61.5408 27.8066 62.5544C26.2858 62.1471 24.8237 61.7074 23.4492 61.2173C23.7608 59.6557 24.1411 58.067 24.5723 56.4587ZM67.4277 56.467C67.8591 58.0761 68.2468 59.6633 68.5583 61.2256C67.1586 61.7162 65.7001 62.1506 64.2008 62.5461C64.7707 61.5349 65.376 60.5901 65.9229 59.5398C66.4548 58.5174 66.9356 57.4918 67.4277 56.467ZM22.4235 68.6584C25.8018 69.7807 29.4489 70.6762 33.3171 71.291C35.7009 74.6445 38.1688 77.6617 40.6992 80.31C36.3977 83.5828 32.4349 85.3509 29.4388 85.3509C28.2275 85.3509 27.2167 85.0815 26.3542 84.5288C23.437 82.6621 21.9385 77.0243 22.3486 69.4557C22.3627 69.1962 22.405 68.9208 22.4235 68.6584ZM69.5765 68.6584C69.5949 68.9208 69.6374 69.1962 69.6514 69.4557C70.0615 77.0243 68.563 82.6579 65.6458 84.5288C64.7833 85.0815 63.7764 85.3509 62.5612 85.3509C59.5651 85.3509 55.6023 83.5834 51.3008 80.31C53.8314 77.6614 56.3061 74.6449 58.6904 71.291C62.5559 70.6762 66.2003 69.78 69.5765 68.6584ZM42.8854 72.2045C43.9196 72.2431 44.9482 72.2959 46 72.2959C47.0518 72.2959 48.0804 72.2431 49.1146 72.2045C48.071 73.4183 47.0391 74.5272 46 75.5762C44.9609 74.5271 43.929 73.4183 42.8854 72.2045Z" fill="#053C64"/>
</svg>