<svg width="92" height="93" viewBox="0 0 92 93" fill="none" xmlns="http://www.w3.org/2000/svg">
                                        <g clip-path="url(#clip0_610_442)">
                                        <rect width="92" height="92" transform="translate(0 0.783691)" fill="white"/>
                                        <g clip-path="url(#clip1_610_442)">
                                        <path d="M44.5 18.7837C32.6333 18.7837 25.2167 24.7681 22.25 36.7369C26.7 30.7525 31.8917 28.5084 37.825 30.0045C41.2103 30.8581 43.6299 33.3351 46.3082 36.0772C50.6712 40.5439 55.7208 45.7136 66.75 45.7136C78.6167 45.7136 86.0333 39.7291 89 27.7603C84.55 33.7447 79.3583 35.9889 73.425 34.4928C70.0397 33.6392 67.6201 31.1621 64.9418 28.4201C60.5788 23.9534 55.5292 18.7837 44.5 18.7837ZM22.25 45.7136C10.3833 45.7136 2.96667 51.698 0 63.6668C4.45 57.6824 9.64167 55.4382 15.575 56.9343C18.9603 57.788 21.3799 60.265 24.0582 63.007C28.4212 67.4737 33.4708 72.6434 44.5 72.6434C56.3667 72.6434 63.7833 66.659 66.75 54.6902C62.3 60.6746 57.1083 62.9188 51.175 61.4227C47.7897 60.569 45.3701 58.092 42.6918 55.35C38.3288 50.8833 33.2792 45.7136 22.25 45.7136Z" fill="url(#paint0_linear_610_442)"/>
                                        </g>
                                        </g>
                                        <defs>
                                        <linearGradient id="paint0_linear_610_442" x1="-632.889" y1="2672.99" x2="21214.5" y2="10186" gradientUnits="userSpaceOnUse">
                                        <stop stop-color="#2298BD"/>
                                        <stop offset="1" stop-color="#0ED7B5"/>
                                        </linearGradient>
                                        <clipPath id="clip0_610_442">
                                        <rect width="92" height="92" fill="white" transform="translate(0 0.783691)"/>
                                        </clipPath>
                                        <clipPath id="clip1_610_442">
                                        <rect width="89" height="54" fill="white" transform="translate(0 18.7837)"/>
                                        </clipPath>
                                        </defs>
                                    </svg>