<svg width="92" height="92" viewBox="0 0 92 92" fill="none" xmlns="http://www.w3.org/2000/svg">
    <mask id="mask0_610_502"  maskUnits="userSpaceOnUse" x="0" y="0" width="92" height="92">
    <path d="M0 0H92V92H0V0Z" fill="white"/>
    </mask>
    <g mask="url(#mask0_610_502)">
    <path d="M6.53907 45.9963C6.53907 61.6169 15.6165 75.1147 28.7796 81.5122L9.9556 29.9365C7.69904 34.9897 6.5348 40.4623 6.53907 45.9963ZM72.641 44.005C72.641 39.1281 70.8892 35.7506 69.3867 33.1218C67.3863 29.8712 65.5121 27.1185 65.5121 23.8679C65.5121 20.2404 68.2626 16.8637 72.1379 16.8637C72.3129 16.8637 72.4788 16.8855 72.65 16.8953C65.6285 10.4632 56.2747 6.53613 46.0011 6.53613C32.2149 6.53613 20.0858 13.6094 13.0297 24.323C13.9556 24.3507 14.8288 24.3695 15.5692 24.3695C19.6968 24.3695 26.0861 23.8687 26.0861 23.8687C28.2134 23.7433 28.4642 26.8677 26.3399 27.1192C26.3399 27.1192 24.2014 27.3708 21.8226 27.4954L36.193 70.2392L44.8297 44.3392L38.6807 27.4947C36.5557 27.37 34.5426 27.1185 34.5426 27.1185C32.4161 26.9938 32.6654 23.7425 34.7919 23.8679C34.7919 23.8679 41.3088 24.3688 45.1864 24.3688C49.3133 24.3688 55.7033 23.8679 55.7033 23.8679C57.8321 23.7425 58.0821 26.8669 55.9564 27.1185C55.9564 27.1185 53.8141 27.37 51.4398 27.4947L65.7006 69.9149L69.636 56.7617C71.3428 51.3036 72.641 47.3832 72.641 44.005Z" fill="#00749A"/>
    <path d="M46.694 49.4499L34.854 83.8537C38.4738 84.9205 42.228 85.4621 46.0017 85.4621C50.5971 85.4621 55.004 84.6669 59.1061 83.2252C58.9961 83.053 58.9021 82.871 58.8253 82.6816L46.694 49.4499ZM80.628 27.0654C80.7977 28.3224 80.8938 29.6725 80.8938 31.1232C80.8938 35.1276 80.1459 39.6291 77.8933 45.2577L65.8393 80.1083C77.5711 73.267 85.4622 60.5569 85.4622 45.9981C85.4727 39.3806 83.8098 32.8678 80.628 27.0654Z" fill="#00749A"/>
    <path d="M46.0008 0C20.6366 0 0 20.6349 0 45.9989C0 71.3658 20.6358 92.0007 46.0008 92.0007C71.3642 92.0007 92.0038 71.3666 92.0038 45.9989C92.003 20.6349 71.3642 0 46.0008 0ZM46.0008 89.8915C21.7997 89.8915 2.10924 70.2012 2.10924 45.9989C2.10924 21.7988 21.799 2.10997 46.0008 2.10997C70.201 2.10997 89.89 21.7988 89.89 45.9989C89.89 70.2012 70.2003 89.8915 46.0008 89.8915Z" fill="#00749A"/>
    </g>
</svg>