<svg width="92" height="92" viewBox="0 0 92 92" fill="none" xmlns="http://www.w3.org/2000/svg">
    <path d="M61.3333 61.3332C69.8017 61.3332 76.6667 54.4682 76.6667 45.9998C76.6667 37.5315 69.8017 30.6665 61.3333 30.6665C52.865 30.6665 46 37.5315 46 45.9998C46 54.4682 52.865 61.3332 61.3333 61.3332Z" fill="#19BCFE"/>
    <path fill-rule="evenodd" clip-rule="evenodd" d="M30.6666 92.0002C39.135 92.0002 45.9999 85.1352 45.9999 76.6668C45.9999 74.3551 45.9999 69.244 45.9999 61.3335C39.1116 61.3335 34.0005 61.3335 30.6666 61.3335C22.1982 61.3335 15.3333 68.1985 15.3333 76.6668C15.3333 85.1352 22.1982 92.0002 30.6666 92.0002Z" fill="#09CF83"/>
    <path fill-rule="evenodd" clip-rule="evenodd" d="M30.6666 61.3332H45.9999V30.6665C38.6005 30.6665 33.4894 30.6665 30.6666 30.6665C22.1982 30.6665 15.3333 37.5315 15.3333 45.9998C15.3333 54.4682 22.1982 61.3332 30.6666 61.3332Z" fill="#A259FF"/>
    <path fill-rule="evenodd" clip-rule="evenodd" d="M30.6666 30.6667H45.9999V0C38.6005 0 33.4894 0 30.6666 0C22.1982 0 15.3333 6.86497 15.3333 15.3333C15.3333 23.8017 22.1982 30.6667 30.6666 30.6667Z" fill="#F24E1E"/>
    <path fill-rule="evenodd" clip-rule="evenodd" d="M61.3333 30.6667H46V0H61.3333C69.8017 0 76.6667 6.86497 76.6667 15.3333C76.6667 23.8017 69.8017 30.6667 61.3333 30.6667Z" fill="#FF7262"/>
</svg>