<svg width="56" height="56" viewBox="0 0 56 56" fill="none" xmlns="http://www.w3.org/2000/svg">
<path d="M0 0H55.3096V55.3096H0V0Z" fill="white" fill-opacity="0.01"/>
<path fill-rule="evenodd" clip-rule="evenodd" d="M27.6548 4.60913C14.927 4.60913 4.60913 14.927 4.60913 27.6548C4.60913 40.3826 14.927 50.7004 27.6548 50.7004C40.3826 50.7004 50.7004 40.3826 50.7004 27.6548C50.7004 14.927 40.3826 4.60913 27.6548 4.60913ZM0 27.6548C0 12.3815 12.3815 0 27.6548 0C42.9281 0 55.3096 12.3815 55.3096 27.6548C55.3096 42.9281 42.9281 55.3096 27.6548 55.3096C12.3815 55.3096 0 42.9281 0 27.6548Z" fill="currentColor"/>
<path fill-rule="evenodd" clip-rule="evenodd" d="M22.1043 52.396C21.8814 52.1083 21.8814 49.5449 22.1043 44.7063C19.717 44.7887 18.2086 44.623 17.5792 44.2092C16.6353 43.5885 15.6902 41.6742 14.8517 40.3251C14.0132 38.976 12.152 38.7627 11.4005 38.4611C10.6489 38.1595 10.4603 36.9301 13.4713 37.8599C16.4825 38.7897 16.6293 41.3216 17.5792 41.9136C18.5292 42.5057 20.8001 42.2466 21.8295 41.7723C22.8589 41.2981 22.7832 39.5322 22.9667 38.8326C23.1988 38.1796 22.3808 38.0348 22.3628 38.0295C21.3579 38.0295 16.0786 36.8814 14.6285 31.769C13.1784 26.6568 15.0464 23.3153 16.0429 21.8789C16.7072 20.9212 16.6484 18.8803 15.8666 15.7559C18.7054 15.3931 20.896 16.2866 22.4386 18.4365C22.4401 18.4489 24.461 17.2348 27.6548 17.2348C30.8487 17.2348 31.9817 18.2237 32.8562 18.4365C33.7306 18.6494 34.43 14.6732 39.8305 15.7559C38.703 17.9719 37.7587 20.7411 38.4795 21.8789C39.2001 23.0166 42.0286 26.6346 40.2912 31.769C39.1328 35.1921 36.8559 37.2789 33.4602 38.0295C33.0708 38.1537 32.8761 38.3542 32.8761 38.6308C32.8761 39.0457 33.4025 39.091 34.1609 41.0346C34.6664 42.3304 34.703 46.0313 34.2704 52.1372C33.1747 52.4162 32.3222 52.6035 31.713 52.6992C30.6329 52.8689 29.4601 52.9641 28.3077 53.0009C27.1554 53.0376 26.7552 53.0335 25.1622 52.8852C24.1001 52.7863 23.0808 52.6233 22.1043 52.396Z" fill="currentColor"/>
</svg>
