<svg width="92" height="93" viewBox="0 0 92 93" fill="none" xmlns="http://www.w3.org/2000/svg">
    <g clip-path="url(#clip0_610_338)">
    <path d="M45.9943 0.783691C20.5965 0.783691 2.65447e-05 21.4607 2.65447e-05 46.9677C-0.01035 56.6481 3.02173 66.087 8.66776 73.9503C14.3138 81.8137 22.2882 87.7039 31.464 90.7884C33.764 91.2139 34.6035 89.7879 34.6035 88.5632C34.6035 87.4649 34.5633 84.5612 34.5403 80.7087C21.7465 83.4974 19.044 74.5159 19.044 74.5159C16.9568 69.1799 13.938 67.7597 13.938 67.7597C9.75778 64.8962 14.2485 64.9537 14.2485 64.9537C18.8658 65.2814 21.2923 69.7147 21.2923 69.7147C25.3978 76.7699 32.062 74.7344 34.684 73.5499C35.098 70.5657 36.2883 68.5302 37.605 67.3744C27.393 66.2072 16.652 62.2454 16.652 44.5527C16.652 39.5099 18.446 35.3872 21.39 32.1557C20.9128 30.9884 19.3373 26.2907 21.8385 19.9369C21.8385 19.9369 25.7025 18.6949 34.4885 24.6692C38.2418 23.6435 42.1149 23.1214 46.0058 23.1167C49.8969 23.1244 53.7698 23.6484 57.523 24.6749C66.3033 18.7007 70.1615 19.9427 70.1615 19.9427C72.6685 26.3022 71.093 30.9942 70.6215 32.1614C73.5713 35.3929 75.348 39.5157 75.348 44.5584C75.348 62.2972 64.5955 66.2014 54.349 67.3457C55.9993 68.7717 57.4713 71.5892 57.4713 75.8959C57.4713 82.0714 57.4138 87.0509 57.4138 88.5632C57.4138 89.7994 58.2418 91.237 60.5763 90.7827C69.7432 87.6908 77.7077 81.7984 83.3459 73.9369C88.9841 66.0755 92.0112 56.642 92 46.9677C92 21.4607 71.4035 0.783691 45.9943 0.783691Z" fill="black"/>
    </g>
    <defs>
    <clipPath id="clip0_610_338">
    <rect width="92" height="92" fill="white" transform="translate(0 0.783691)"/>
    </clipPath>
    </defs>
</svg>