<svg width="92" height="93" viewBox="0 0 92 93" fill="none" xmlns="http://www.w3.org/2000/svg">
    <path d="M16.9682 78.9866L10.5081 6.53369H81.4918L75.023 78.9751L45.9568 87.0337L16.9682 78.9866Z" fill="#E44F26"/>
    <path d="M46 80.8754L69.4888 74.3635L75.0145 12.459H46V80.8754Z" fill="#F1662A"/>
    <path d="M46 39.3288H34.2412L33.4305 30.2294H46V21.3428H45.9684H23.7188L23.9315 23.729L26.1136 48.2154H46V39.3288Z" fill="#EBEBEB"/>
    <path d="M45.9999 62.4064L45.9596 62.4179L36.0639 59.747L35.4314 52.6602H30.6215H26.5103L27.7551 66.6097L45.9596 71.6639L45.9999 71.6524V62.4064Z" fill="#EBEBEB"/>
    <path d="M45.9683 39.3286V48.2152H56.9105L55.8813 59.7411L45.9683 62.4149V71.6609L64.1871 66.6095L64.3194 65.1087L66.4066 41.7149L66.6251 39.3286H64.2303H45.9683Z" fill="white"/>
    <path d="M45.9683 21.3428V26.8628V30.2093V30.2294H67.4043H67.433L67.6113 28.2341L68.0166 23.729L68.2294 21.3428H45.9683Z" fill="white"/>
</svg>