<svg width="36" height="36" viewBox="0 0 36 36" fill="none" xmlns="http://www.w3.org/2000/svg">
<g clip-path="url(#clip0_640_85)">
<path d="M27.9196 0H8.08036C3.6177 0 0 3.6177 0 8.08036V27.9196C0 32.3823 3.6177 36 8.08036 36H27.9196C32.3823 36 36 32.3823 36 27.9196V8.08036C36 3.6177 32.3823 0 27.9196 0Z" fill="url(#paint0_linear_640_85)"/>
<path d="M12.4698 6.23486H23.6925C23.9419 6.35956 24.316 6.35956 24.5654 6.48426C25.6597 6.66162 26.683 7.14069 27.52 7.86762C28.3571 8.59455 28.9749 9.54053 29.3038 10.5993C29.488 11.2094 29.6133 11.8357 29.6779 12.4697V23.443C29.4997 24.8338 28.9861 26.1604 28.1816 27.3086C27.4913 28.1084 26.626 28.7381 25.6528 29.149C24.6796 29.56 23.6247 29.7409 22.5702 29.6779H13.2179C11.5489 29.7589 9.90792 29.2267 8.60415 28.1815C7.81133 27.4965 7.18567 26.6393 6.77503 25.6753C6.36439 24.7114 6.17964 23.6663 6.23491 22.62V13.8913C6.21431 13.2652 6.25608 12.6386 6.35961 12.0208C6.48553 10.7424 7.01116 9.53619 7.86182 8.5736C8.71247 7.61102 9.84487 6.94103 11.0981 6.65883L12.4698 6.23486ZM8.60415 18.0811V22.9442C8.55098 23.5635 8.63383 24.187 8.8469 24.7709C9.05996 25.3548 9.39809 25.8851 9.8376 26.3246C10.2771 26.7641 10.8074 27.1022 11.3913 27.3153C11.9752 27.5284 12.5986 27.6112 13.2179 27.558C16.4601 27.6827 19.7022 27.6827 22.9443 27.558C25.8123 27.558 27.4334 25.8123 27.5581 22.9442C27.6828 19.7021 27.6828 16.46 27.5581 13.2179C27.5904 12.6035 27.4932 11.9892 27.2727 11.4148C27.0523 10.8403 26.7136 10.3187 26.2785 9.88365C25.8435 9.44861 25.3218 9.10988 24.7474 8.88944C24.173 8.66901 23.5587 8.57179 22.9443 8.6041C19.7022 8.47941 16.4601 8.47941 13.2179 8.6041C12.5986 8.55094 11.9752 8.63379 11.3913 8.84685C10.8074 9.05991 10.2771 9.39804 9.8376 9.83756C9.39809 10.2771 9.05996 10.8074 8.8469 11.3913C8.63383 11.9752 8.55098 12.5986 8.60415 13.2179V18.0811Z" fill="white"/>
<path d="M12.0208 18.1311C12.024 16.5116 12.6689 14.9594 13.814 13.8143C14.9592 12.6691 16.5114 12.0243 18.1309 12.021C19.7414 12.0529 21.2771 12.7069 22.4161 13.8459C23.5552 14.9849 24.2091 16.5206 24.241 18.1311C24.2378 19.7506 23.5929 21.3029 22.4478 22.448C21.3026 23.5932 19.7504 24.238 18.1309 24.2413C16.5204 24.2094 14.9847 23.5554 13.8457 22.4164C12.7066 21.2773 12.0527 19.7417 12.0208 18.1311ZM18.1309 14.2655C17.3735 14.2532 16.6297 14.4673 15.9948 14.8805C15.3599 15.2936 14.8628 15.8869 14.5673 16.5843C14.2717 17.2818 14.1911 18.0516 14.3359 18.7951C14.4806 19.5386 14.8441 20.222 15.3797 20.7576C15.9154 21.2932 16.5987 21.6567 17.3422 21.8015C18.0858 21.9462 18.8556 21.8656 19.553 21.5701C20.2505 21.2745 20.8438 20.7775 21.2569 20.1425C21.67 19.5076 21.8841 18.7638 21.8718 18.0064C21.8718 17.0143 21.4777 16.0628 20.7761 15.3612C20.0746 14.6597 19.1231 14.2655 18.1309 14.2655Z" fill="white"/>
<path d="M22.8695 11.7712C22.8626 11.5728 22.8965 11.3751 22.9692 11.1904C23.042 11.0057 23.152 10.838 23.2923 10.6976C23.4327 10.5572 23.6004 10.4473 23.7851 10.3745C23.9698 10.3018 24.1675 10.2678 24.3659 10.2748C24.7541 10.3011 25.1197 10.4672 25.3948 10.7423C25.6699 11.0174 25.836 11.383 25.8623 11.7712C25.8623 12.168 25.7046 12.5486 25.424 12.8293C25.1434 13.1099 24.7628 13.2675 24.3659 13.2675C23.969 13.2675 23.5884 13.1099 23.3078 12.8293C23.0272 12.5486 22.8695 12.168 22.8695 11.7712Z" fill="white"/>
</g>
<defs>
<linearGradient id="paint0_linear_640_85" x1="-2.29442" y1="37.9952" x2="40.1025" y2="-3.77832" gradientUnits="userSpaceOnUse">
<stop stop-color="#FED576"/>
<stop offset="0.26" stop-color="#F47133"/>
<stop offset="0.61" stop-color="#BC3081"/>
<stop offset="1" stop-color="#4C63D2"/>
</linearGradient>
<clipPath id="clip0_640_85">
<rect width="36" height="36" fill="white"/>
</clipPath>
</defs>
</svg>
