<svg width="92" height="93" viewBox="0 0 92 93" fill="none" xmlns="http://www.w3.org/2000/svg">
                                        <g clip-path="url(#clip0_610_428)">
                                        <path d="M78.2 0.783691H13.8C6.17847 0.783691 0 6.96216 0 14.5837V78.9837C0 86.6052 6.17847 92.7837 13.8 92.7837H78.2C85.8215 92.7837 92 86.6052 92 78.9837V14.5837C92 6.96216 85.8215 0.783691 78.2 0.783691Z" fill="#F7DF1E"/>
                                        <path d="M58.2188 67.2681C60.0156 70.3228 62.5312 72.479 66.6641 72.479C70.2578 72.479 72.5938 70.6821 72.5938 68.1665C72.5938 65.2915 70.2578 64.2134 66.3047 62.4165L64.1484 61.5181C57.8594 58.8228 53.7266 55.5884 53.7266 48.5806C53.7266 42.1118 58.5781 37.0806 66.3047 37.0806C71.875 37.0806 75.8281 39.0571 78.5234 44.0884L71.875 48.4009C70.4375 45.7056 68.8203 44.6274 66.3047 44.6274C63.7891 44.6274 62.1719 46.2446 62.1719 48.4009C62.1719 50.9165 63.7891 51.9946 67.5625 53.6118L69.7188 54.5103C77.0859 57.7446 81.2188 60.7993 81.2188 68.1665C81.2188 75.8931 75.1094 80.2056 66.8438 80.2056C58.7578 80.2056 53.5469 76.4321 51.0312 71.4009L58.2188 67.2681ZM27.6719 67.9868C29.1094 70.3228 30.1875 72.479 33.2422 72.479C36.1172 72.479 37.9141 71.4009 37.9141 67.0884V37.2603H46.5391V66.729C46.5391 75.7134 41.3281 79.6665 33.6016 79.6665C26.5938 79.6665 22.6406 76.0728 20.6641 71.7603L27.6719 67.9868Z" fill="#313131"/>
                                        </g>
                                        <defs>
                                        <clipPath id="clip0_610_428">
                                        <rect width="92" height="92" fill="white" transform="translate(0 0.783691)"/>
                                        </clipPath>
                                        </defs>
                                    </svg>