<svg width="11" height="12" viewBox="0 0 11 12" fill="none" fill="currentColor" xmlns="http://www.w3.org/2000/svg">
    <path d="M10.0603 0.529999H0.880325C0.647832 0.533322 0.425636 0.626499 0.260315 0.790001C0.178015 0.87093 0.112646 0.967424 0.0680081 1.07387C0.0233704 1.18031 0.000362867 1.29458 0.000320073 1.41V10.59C-0.00285833 10.7065 0.0176629 10.8224 0.0606381 10.9307C0.103613 11.039 0.168146 11.1374 0.25032 11.22C0.336539 11.298 0.434371 11.3621 0.540313 11.41C0.649311 11.4496 0.76437 11.4699 0.880325 11.47H10.0603C10.1759 11.4711 10.2905 11.4486 10.3971 11.4039C10.5037 11.3592 10.6001 11.2932 10.6803 11.21C10.764 11.1301 10.8303 11.0338 10.8751 10.9271C10.9198 10.8205 10.942 10.7057 10.9403 10.59V1.37C10.937 1.25346 10.9133 1.13838 10.8703 1.03C10.8213 0.922258 10.7536 0.824068 10.6703 0.739998C10.5825 0.659274 10.4809 0.594932 10.3703 0.550003C10.2582 0.509283 10.1396 0.488957 10.0203 0.489998L10.0603 0.529999ZM10.0603 10.59H0.880325V1.37H10.0603V10.59ZM1.62032 4.59H3.25032V9.81H1.62032V4.59ZM2.43031 3.88C2.67672 3.86809 2.91004 3.76552 3.0854 3.592C3.26077 3.41849 3.36581 3.18627 3.38032 2.94C3.37769 2.8159 3.3505 2.69354 3.30032 2.58C3.25658 2.46356 3.18839 2.35784 3.10033 2.27C3.00899 2.18635 2.90417 2.11874 2.79031 2.07C2.67953 2.00808 2.55678 1.97058 2.43031 1.96C2.30724 1.96302 2.18556 1.98668 2.07033 2.03C1.9609 2.08131 1.85977 2.14873 1.77032 2.23C1.68013 2.3161 1.61159 2.42233 1.57033 2.54C1.4898 2.66634 1.44169 2.81061 1.43031 2.96C1.43318 3.0873 1.46033 3.21289 1.51031 3.33C1.56315 3.44645 1.63784 3.55168 1.73032 3.64C1.82832 3.7222 1.94002 3.78652 2.06032 3.83C2.17894 3.87178 2.30486 3.88879 2.43031 3.88ZM5.84032 7.23C5.84032 6.55 5.97032 5.89 6.84032 5.89C7.71032 5.89 7.68031 6.67 7.68031 7.27V9.81H9.30032V7C9.30032 5.59 9.00032 4.51 7.36032 4.51C7.04927 4.50196 6.74181 4.57797 6.47032 4.73C6.20326 4.88085 5.97944 5.09778 5.82033 5.36V4.6H4.26031V9.82H5.88032L5.84032 7.23Z" />
</svg>
