<svg width="92" height="92" viewBox="0 0 92 92" fill="none" xmlns="http://www.w3.org/2000/svg">
    <g clip-path="url(#clip0_610_515)">
    <path d="M72.2774 23.1879C72.1847 23.256 72.1153 23.3512 72.0789 23.4603C72.0425 23.5695 72.0409 23.6873 72.0743 23.7974V23.7936C72.2122 24.0699 72.2661 24.3805 72.2293 24.6871C72.1925 24.9937 72.0666 25.2828 71.8673 25.5186L71.8711 25.5148C71.796 25.6096 71.7555 25.7273 71.7561 25.8483C71.7561 26.0169 71.8366 26.1703 71.9593 26.2699C72.0516 26.3416 72.1644 26.3819 72.2813 26.3849C72.4423 26.3849 72.5879 26.3083 72.6876 26.1933C73.0175 25.7972 73.2244 25.3133 73.283 24.8012C73.3416 24.289 73.2492 23.7709 73.0173 23.3106C72.9769 23.2538 72.9256 23.2056 72.8665 23.1687C72.8074 23.1318 72.7416 23.1069 72.6729 23.0955C72.6041 23.0841 72.5338 23.0864 72.4659 23.1023C72.3981 23.1181 72.334 23.1472 72.2774 23.1879ZM73.0211 23.3144L73.0134 23.2991L73.0173 23.3106L73.0211 23.3144Z" fill="#F36933"/>
    <path d="M51.8529 0.378782C26.6602 -2.85272 3.61035 14.9493 0.378849 40.1458C-2.85265 65.3384 14.9455 88.3844 40.142 91.6198C65.3385 94.8513 88.396 77.0493 91.6199 51.8528C94.8552 26.6601 77.057 3.61411 51.8529 0.378782ZM61.325 29.0713C60.4711 29.0809 59.6549 29.4249 59.0518 30.0296L41.982 47.0994L38.3404 43.4578C55.1649 26.6831 58.2009 26.5221 61.325 29.0713ZM42.6835 47.7051L59.7035 30.6851C59.9263 30.4507 60.1945 30.2641 60.4919 30.137C60.7892 30.0098 61.1094 29.9446 61.4328 29.9455C61.7562 29.9463 62.076 30.0132 62.3727 30.1419C62.6693 30.2706 62.9366 30.4586 63.1581 30.6942C63.3796 30.9298 63.5507 31.2082 63.6609 31.5122C63.7711 31.8162 63.8181 32.1396 63.799 32.4624C63.78 32.7853 63.6952 33.1008 63.5499 33.3897C63.4046 33.6787 63.2019 33.9349 62.9542 34.1428L62.9504 34.1466L44.9375 49.9591L42.6835 47.7051ZM43.9485 50.3654L39.7318 51.2778C39.7154 51.281 39.6987 51.2822 39.682 51.2816C39.6392 51.2819 39.5971 51.2702 39.5605 51.2479C39.5239 51.2255 39.4943 51.1934 39.475 51.1551C39.4494 51.1108 39.4392 51.0593 39.4462 51.0086C39.4531 50.9579 39.4767 50.911 39.5133 50.8753L41.9859 48.4028L43.9485 50.3654ZM33.2037 48.6059L37.6964 44.1133L41.0659 47.4789L33.4797 49.1119C33.4557 49.1166 33.4313 49.1192 33.4069 49.1196C33.3543 49.1194 33.3027 49.1047 33.2581 49.0769C33.2134 49.0492 33.1773 49.0095 33.1539 48.9624C33.1256 48.9178 33.1109 48.8658 33.1117 48.8129C33.1117 48.7324 33.1462 48.6558 33.2037 48.6059ZM19.2274 71.8244C19.1548 71.8195 19.0869 71.787 19.0377 71.7335C18.9885 71.68 18.9617 71.6096 18.9629 71.5369V71.5063C18.9701 71.4396 18.9999 71.3774 19.0472 71.3299H19.0549L22.6812 67.7036L27.3655 72.388L19.2274 71.8244ZM28.527 67.0136C28.3512 67.1032 28.2111 67.2499 28.1296 67.4296C28.0481 67.6093 28.0301 67.8113 28.0785 68.0026V67.9949L28.8567 71.3108C28.8818 71.4129 28.8726 71.5205 28.8305 71.617C28.7884 71.7134 28.7158 71.7933 28.6238 71.8443C28.5317 71.8953 28.4255 71.9146 28.3214 71.8993C28.2173 71.8839 28.1212 71.8347 28.0478 71.7593H28.0364L23.329 67.0481L37.75 52.6424L44.7267 51.1359L48.077 54.4863C43.2662 58.7106 36.6882 62.9235 28.527 67.0136ZM48.7594 53.8729H48.7517L45.5355 50.6568L63.5483 34.8443C63.7115 34.6979 63.8615 34.5376 63.9968 34.3651L64.0045 34.3574C63.441 39.5133 56.2267 46.7966 48.7594 53.8729ZM67.7037 31.1489C66.7887 31.1506 65.8825 30.9713 65.0371 30.6213C64.1917 30.2713 63.4239 29.7575 62.7779 29.1096L62.7702 29.1019C61.5143 27.8253 60.7968 26.1151 60.7659 24.3246C60.735 22.5341 61.3929 20.8001 62.6039 19.4809C63.8149 18.1617 65.4864 17.358 67.273 17.2359C69.0596 17.1138 70.8248 17.6826 72.204 18.8248L72.1925 18.8171L66.0209 25.0003C65.9781 25.0423 65.9442 25.0924 65.9212 25.1477C65.8981 25.203 65.8864 25.2624 65.8867 25.3223C65.8867 25.4488 65.9365 25.5638 66.0209 25.6443L70.801 30.4244C69.839 30.9037 68.7785 31.1518 67.7037 31.1489ZM72.664 29.1096C72.3535 29.4163 72.0162 29.6884 71.6482 29.9299L71.6252 29.9453L66.9945 25.3184L72.871 19.4419C75.4049 22.2019 75.3129 26.4646 72.664 29.1096Z" fill="#F36933"/>
    </g>
    <defs>
    <clipPath id="clip0_610_515">
    <rect width="92" height="92" fill="white"/>
    </clipPath>
    </defs>
</svg>